<?xml version="1.0" encoding="utf-8"?>
<!-- Generator: Adobe Illustrator 16.0.0, SVG Export Plug-In . SVG Version: 6.00 Build 0)  -->
<!DOCTYPE svg PUBLIC "-//W3C//DTD SVG 1.1//EN" "http://www.w3.org/Graphics/SVG/1.1/DTD/svg11.dtd">
<svg version="1.1" id="Calque_1" xmlns="http://www.w3.org/2000/svg" xmlns:xlink="http://www.w3.org/1999/xlink" x="0px" y="0px"
	 width="795px" height="113px" viewBox="0 0 795 113" enable-background="new 0 0 795 113" xml:space="preserve">
<g>
	<rect x="136.54" y="18.618" fill="none" width="633.24" height="83.382"/>
	<path fill="#2411A8" d="M161.496,18.432h31.774c0.619,0.309,1.887,2.025,3.805,5.148c-1.949,7.36-3.217,11.04-3.805,11.04h-25.559
		c-0.959,0.278-3.031,6.851-6.216,19.714l-5.892,20.364h21.432c2.535,2.443,3.803,4.284,3.803,5.521
		c-1.917,7.143-3.077,10.715-3.479,10.715h-28.296c-4.113,0-7.113-2.18-8.999-6.541c-1.608-1.328-2.412-2.952-2.412-4.87
		c0-2.01,5.288-20.765,15.864-56.267C156.238,20.039,158.898,18.432,161.496,18.432z M138.674,79.197
		c0.804,3.682,2.535,5.521,5.195,5.521h29.688l2.412-8.999h-24.863c-0.897-0.464-1.345-1.035-1.345-1.717
		c6.648-24.615,11.009-39.582,13.08-44.902l2.088-0.695h24.168c0.463,0,1.499-2.984,3.107-8.953h-28.992
		c-6.309,0-10.111,4.717-11.41,14.148L138.674,79.197z"/>
	<path fill="#2411A8" d="M286.462,18.106c2.752,1.608,5.396,7.499,7.933,17.673l8.303,26.627h0.371
		c7.854-28.297,12.122-43.063,12.803-44.3h11.411l4.175,5.195l-20.086,67.493H299.59c-2.536-2.227-4.841-7.762-6.912-16.607
		l-8.674-26.996h-0.325c-7.607,28.049-11.875,42.582-12.803,43.604H260.16l-4.174-5.521l19.389-67.168H286.462z M257.377,84.578
		h9.695l13.823-49.17h0.696l15.261,49.17h10.345l19.064-65.451h-9.695l-14.193,49.865h-0.696l-15.586-49.865h-9.323
		c-0.928,0.928-4.964,14.658-12.107,41.191L257.377,84.578z"/>
	<path fill="#2411A8" d="M337.302,18.478h53.809c2.041,1.794,3.417,3.618,4.129,5.474c-1.918,7.082-3.063,10.623-3.434,10.623
		h-21.94L353.769,90.47H342.45l-4.128-5.149l15.075-50.746h-15.4c-0.587-0.154-1.964-1.871-4.128-5.149
		C335.322,22.869,336.467,19.22,337.302,18.478z M337.626,19.498l-2.365,8.906h20.225l0.649,0.695l-16.097,55.201h9.603
		l16.097-55.896h22.312l2.366-8.906H337.626z"/>
	<path fill="#2411A8" d="M441.395,18.617c2.071,0,4.251,2.072,6.54,6.215c1.144,0.805,1.716,2.072,1.716,3.805
		c0,2.104-3.556,14.504-10.668,37.201c-1.547,1.393-3.047,2.088-4.5,2.088h-6.912v0.324l10.345,22.405l-0.325,0.371h-11.735
		c-3.31-3.649-7.438-11.349-12.386-23.101h-7.932c-0.619,0-2.814,7.36-6.587,22.08l-1.021,1.021h-11.04l-4.128-5.195l19.992-67.214
		H441.395z M384.478,84.811h9.648c3.927-14.349,6.339-22.049,7.236-23.101h9.694c0.681,0.371,4.577,8.071,11.689,23.101h10.02
		l-10.344-22.729l0.324-0.371h8.953c2.412,0,4.483-4.36,6.216-13.081c4.144-12.957,6.556-21.245,7.236-24.863
		c0-2.195-1.716-3.572-5.149-4.129h-35.856c-0.928,0.99-6.68,20.07-17.256,57.242C386.209,77.992,385.405,80.636,384.478,84.811z
		 M410.686,28.637h19.993c2.071,0.34,3.108,1.252,3.108,2.736c-3.805,13.762-6.108,20.658-6.912,20.688l-2.041,0.696h-20.688
		l-0.696-0.696C407.902,36.568,410.314,28.76,410.686,28.637z M414.49,34.806l-4.824,16.931h14.473c2.35,0,3.958-2.875,4.824-8.627
		l2.412-8.304H414.49z"/>
	<path fill="#2411A8" d="M466.025,18.663h31.265c2.535,0,4.777,1.53,6.727,4.593c1.205,1.516,1.947,3.417,2.227,5.705
		c-9.865,35.842-15.37,54.629-16.514,56.359c-3.278,3.648-6.943,5.475-10.994,5.475h-25.744c-4.516,0-8.181-3.557-10.994-10.67
		v-1.716c8.473-30.584,13.746-48.892,15.818-54.922C460.443,20.271,463.18,18.663,466.025,18.663z M443.018,79.477
		c0,2.783,1.84,4.499,5.521,5.148h28.156c3.927,0,7.128-2.412,9.602-7.236c3.217-10.112,8.258-27.739,15.123-52.881v-1.021
		c0-2.164-1.608-3.433-4.824-3.804h-28.854c-6.865,0.866-10.297,3.959-10.297,9.277C450.795,50.918,445.986,67.756,443.018,79.477z
		 M469.829,28.637h17.488c1.855,0,2.783,0.912,2.783,2.736c-7.577,27.307-11.813,41.732-12.711,43.279l-1.716,1.02h-20.271
		l-1.393-1.345v-0.371c1.825-7.483,6.062-22.249,12.711-44.3C467.587,28.977,468.623,28.637,469.829,28.637z M459.856,74.652h13.73
		c2.783,0,4.499-2.752,5.148-8.258l9.277-31.589H471.87c-0.928,0.278-2.984,6.804-6.17,19.575L459.856,74.652z"/>
	<path fill="#2411A8" d="M528.137,18.663l3.758,4.778l-14.334,50.793h21.152c0.866,0.557,2.118,2.15,3.758,4.777
		c-1.732,7.516-2.86,11.272-3.387,11.272h-37.201c-0.588-0.155-1.949-1.855-4.082-5.103l19.111-66.519H528.137z M517.561,19.684
		l-18.415,64.478h36.182l2.366-8.906h-26.256V74.93l15.68-55.246H517.561z"/>
	<path fill="#2411A8" d="M574.06,18.803c1.021,0.68,2.273,2.272,3.758,4.777v0.371c-11.628,41.811-18.014,64.09-19.158,66.844
		h-11.318l-4.128-5.475l19.899-66.518H574.06z M544.929,84.625h9.231c0.525,0,4.298-12.91,11.318-38.732l7.562-26.07h-8.582
		c-0.897,1.145-4.206,12-9.927,32.564L544.929,84.625z"/>
	<path fill="#2411A8" d="M628.704,19.174h26.858l3.85,4.777c-1.701,7.515-2.876,11.271-3.525,11.271h-22.684
		c-4.576,0-7.669,5.026-9.277,15.076l-8.303,29.409c-4.021,7.515-9.989,11.272-17.905,11.272h-23.981
		c-0.402-0.094-1.687-2.026-3.851-5.799c1.484-6.834,2.552-10.252,3.2-10.252h21.756c4.762,0,7.746-2.859,8.953-8.581
		c5.968-23.069,9.694-36.165,11.179-39.29C618.963,21.803,623.539,19.174,628.704,19.174z M596.419,75.951h-23.008l-2.227,8.859
		h25.234c7.205,0,12.54-4.561,16.003-13.684c5.969-22.545,9.587-35.301,10.855-38.27c2.318-2.505,4.979-3.758,7.979-3.758h21.105
		l2.273-8.906h-23.982c-8.134,0-13.576,3.882-16.328,11.644l-10.854,39.29C601.119,74.344,598.769,75.951,596.419,75.951z"/>
	<path fill="#2411A8" d="M672.308,18.663h31.265c2.535,0,4.777,1.53,6.727,4.593c1.205,1.516,1.947,3.417,2.227,5.705
		c-9.865,35.842-15.37,54.629-16.514,56.359c-3.278,3.648-6.943,5.475-10.994,5.475h-25.744c-4.516,0-8.181-3.557-10.994-10.67
		v-1.716c8.473-30.584,13.746-48.892,15.818-54.922C666.726,20.271,669.462,18.663,672.308,18.663z M649.3,79.477
		c0,2.783,1.84,4.499,5.521,5.148h28.156c3.927,0,7.128-2.412,9.602-7.236c3.217-10.112,8.258-27.739,15.123-52.881v-1.021
		c0-2.164-1.608-3.433-4.824-3.804h-28.854c-6.865,0.866-10.297,3.959-10.297,9.277C657.077,50.918,652.269,67.756,649.3,79.477z
		 M676.111,28.637H693.6c1.855,0,2.783,0.912,2.783,2.736c-7.577,27.307-11.813,41.732-12.711,43.279l-1.716,1.02h-20.271
		l-1.393-1.345v-0.371c1.825-7.483,6.062-22.249,12.711-44.3C673.869,28.977,674.905,28.637,676.111,28.637z M666.139,74.652h13.73
		c2.783,0,4.499-2.752,5.148-8.258l9.277-31.589h-16.143c-0.928,0.278-2.984,6.804-6.17,19.575L666.139,74.652z"/>
	<path fill="#2411A8" d="M762.345,18.617c2.071,0,4.251,2.072,6.54,6.215c1.144,0.805,1.716,2.072,1.716,3.805
		c0,2.104-3.556,14.504-10.668,37.201c-1.547,1.393-3.047,2.088-4.5,2.088h-6.912v0.324l10.345,22.405l-0.325,0.371h-11.735
		c-3.31-3.649-7.438-11.349-12.386-23.101h-7.932c-0.619,0-2.814,7.36-6.587,22.08l-1.021,1.021h-11.04l-4.128-5.195l19.992-67.214
		H762.345z M705.428,84.811h9.648c3.927-14.349,6.339-22.049,7.236-23.101h9.694c0.681,0.371,4.577,8.071,11.689,23.101h10.02
		l-10.344-22.729l0.324-0.371h8.953c2.412,0,4.483-4.36,6.216-13.081c4.144-12.957,6.556-21.245,7.236-24.863
		c0-2.195-1.716-3.572-5.149-4.129h-35.856c-0.928,0.99-6.68,20.07-17.256,57.242C707.159,77.992,706.355,80.636,705.428,84.811z
		 M731.636,28.637h19.993c2.071,0.34,3.108,1.252,3.108,2.736c-3.805,13.762-6.108,20.658-6.912,20.688l-2.041,0.696h-20.688
		l-0.696-0.696C728.853,36.568,731.265,28.76,731.636,28.637z M735.44,34.806l-4.824,16.931h14.473c2.35,0,3.958-2.875,4.824-8.627
		l2.412-8.304H735.44z"/>
</g>
<polygon fill="#C60917" points="70.43,66 92.032,87 125.212,87 131.29,66 "/>
<polygon fill="#C60917" points="45.881,43 67.483,63 132.119,63 138.197,43 "/>
<polygon fill="#C60917" points="21.333,19 42.936,40 139.026,40 145.104,19 "/>
<polygon fill="none" stroke="#C60917" stroke-miterlimit="10" points="77.879,70.5 97.845,90.5 128.511,90.5 134.129,70.5 "/>
<polygon fill="none" stroke="#C60917" stroke-miterlimit="10" points="55.188,46.5 75.155,65.5 134.895,65.5 140.513,46.5 "/>
<polygon fill="none" stroke="#C60917" stroke-miterlimit="10" points="32.5,23.5 52.467,42.5 141.279,42.5 146.896,23.5 "/>
<g>
	<g>
		<path fill="#C60917" d="M243.214,80.849c0,0-0.422,0.544-1.213,1.564c-0.392,0.509-1.028,1.225-1.697,2.011
			c-0.712,0.753-1.476,1.621-2.457,2.514c-1.913,1.806-4.436,3.875-7.824,5.62c-1.702,0.851-3.608,1.65-5.781,2.104
			c-2.154,0.47-4.554,0.652-7.023,0.287c-0.611-0.12-1.238-0.199-1.849-0.372l-0.917-0.276l-0.46-0.142l-0.23-0.072l-0.058-0.018
			l-0.162-0.062l-0.093-0.039c-0.849-0.323-2.382-1.05-3.405-1.74c-2.208-1.451-4.147-3.372-5.661-5.569
			c-3.078-4.396-4.699-9.684-5.394-15.087c-0.692-5.427-0.396-11.049,0.635-16.574c0.521-2.772,1.241-5.485,2.155-8.206
			c0.432-1.267,0.94-2.658,1.49-3.966c0.542-1.313,1.131-2.609,1.774-3.877c2.549-5.078,5.862-9.817,9.987-13.675
			c2.055-1.93,4.338-3.61,6.803-4.931c2.475-1.297,5.158-2.216,7.914-2.475c2.74-0.273,5.545,0.147,7.953,1.202
			c2.464,1.042,4.525,2.668,6.152,4.524c3.263,3.746,4.912,8.175,5.834,12.24c0.922,4.098,1.092,7.946,0.988,11.318
			c-0.126,3.378-0.529,6.296-0.992,8.668c-0.462,2.373-0.98,4.199-1.328,5.442c-0.384,1.233-0.589,1.891-0.589,1.891
			s0.178-0.665,0.51-1.912c0.296-1.256,0.737-3.097,1.1-5.475c0.361-2.375,0.641-5.287,0.628-8.623
			c-0.034-3.329-0.363-7.103-1.422-11.037c-1.049-3.903-2.839-8.07-5.973-11.37c-1.553-1.635-3.48-3.007-5.637-3.814
			c-2.184-0.848-4.579-1.097-6.961-0.765c-4.801,0.656-9.293,3.556-12.918,7.242c-3.655,3.711-6.577,8.267-8.763,13.118
			c-0.554,1.211-1.055,2.447-1.511,3.697c-0.465,1.25-0.854,2.458-1.252,3.805c-0.73,2.513-1.312,5.121-1.683,7.697
			c-0.746,5.161-0.788,10.335,0.03,15.132c0.805,4.78,2.461,9.236,4.987,12.511c1.239,1.652,2.712,2.951,4.262,3.883
			c0.865,0.492,1.319,0.707,2.486,1.127c0.384,0.099,0.765,0.196,1.142,0.293c0.406,0.102,0.824,0.12,1.227,0.191
			c3.271,0.321,6.39-0.698,8.902-2.139c2.531-1.439,4.527-3.193,6.042-4.756c0.774-0.758,1.4-1.543,1.951-2.168
			c0.512-0.666,0.929-1.146,1.304-1.676c0.749-1.053,1.147-1.613,1.147-1.613L243.214,80.849z"/>
		<g>
			<polygon fill="#C60917" points="227.635,76.092 247.766,63.154 248.907,87.059 			"/>
		</g>
	</g>
</g>
<g>
	<g>
		<path fill="#C60917" d="M207.916,30.03c0,0,0.422-0.544,1.213-1.564c0.392-0.509,1.028-1.225,1.697-2.011
			c0.712-0.753,1.475-1.62,2.457-2.513c1.912-1.807,4.435-3.876,7.824-5.621c1.701-0.851,3.607-1.65,5.78-2.104
			c2.154-0.471,4.554-0.652,7.023-0.288c0.611,0.121,1.239,0.2,1.85,0.373l0.916,0.275l0.46,0.143l0.23,0.071l0.058,0.019
			l0.162,0.061l0.093,0.039c0.849,0.324,2.382,1.05,3.405,1.74c2.209,1.45,4.147,3.372,5.662,5.568
			c3.079,4.396,4.7,9.684,5.395,15.088c0.692,5.426,0.396,11.048-0.636,16.573c-0.521,2.772-1.241,5.485-2.156,8.206
			c-0.432,1.267-0.939,2.658-1.49,3.966c-0.541,1.313-1.13,2.609-1.773,3.877c-2.549,5.078-5.861,9.817-9.986,13.675
			c-2.055,1.931-4.338,3.611-6.803,4.932c-2.475,1.297-5.158,2.217-7.913,2.476c-2.741,0.273-5.545-0.147-7.954-1.202
			c-2.464-1.042-4.524-2.668-6.152-4.524c-3.263-3.747-4.911-8.176-5.834-12.24c-0.922-4.098-1.093-7.946-0.989-11.318
			c0.126-3.378,0.529-6.296,0.991-8.668c0.462-2.373,0.98-4.199,1.328-5.442c0.384-1.233,0.589-1.891,0.589-1.891
			s-0.178,0.665-0.51,1.912c-0.296,1.256-0.737,3.098-1.099,5.475c-0.361,2.375-0.641,5.287-0.627,8.623
			c0.034,3.329,0.363,7.103,1.422,11.037c1.05,3.903,2.84,8.069,5.974,11.37c1.553,1.635,3.479,3.007,5.636,3.814
			c2.183,0.849,4.579,1.097,6.961,0.765c4.801-0.657,9.293-3.557,12.917-7.243c3.655-3.712,6.577-8.268,8.763-13.119
			c0.554-1.211,1.055-2.447,1.511-3.697c0.464-1.249,0.853-2.458,1.251-3.805c0.73-2.514,1.313-5.121,1.684-7.697
			c0.746-5.161,0.789-10.334-0.03-15.132c-0.805-4.779-2.46-9.235-4.987-12.511c-1.239-1.651-2.712-2.95-4.262-3.882
			c-0.865-0.492-1.319-0.706-2.486-1.126c-0.385-0.099-0.765-0.196-1.143-0.293c-0.406-0.102-0.824-0.12-1.227-0.191
			c-3.271-0.321-6.389,0.698-8.901,2.139c-2.531,1.439-4.527,3.193-6.042,4.757c-0.774,0.758-1.4,1.542-1.951,2.167
			c-0.512,0.667-0.929,1.146-1.305,1.677c-0.748,1.052-1.146,1.613-1.146,1.613L207.916,30.03z"/>
		<g>
			<polygon fill="#C60917" points="223.495,34.788 203.363,47.725 202.223,23.82 			"/>
		</g>
	</g>
</g>
<rect fill="none" width="795" height="113"/>
</svg>
